<mxfile host="app.diagrams.net" modified="2021-06-01T02:04:20.501Z" agent="5.0 (Windows NT 10.0; Win64; x64) AppleWebKit/537.36 (KHTML, like Gecko) Chrome/90.0.4430.212 Safari/537.36" etag="4xJCyEEQSTf1dz3HKlzt" version="14.7.3" type="github">
  <diagram id="kgpKYQtTHZ0yAKxKKP6v" name="Page-1">
    <mxGraphModel dx="868" dy="450" grid="1" gridSize="10" guides="1" tooltips="1" connect="1" arrows="1" fold="1" page="1" pageScale="1" pageWidth="850" pageHeight="1100" math="0" shadow="0">
      <root>
        <mxCell id="0" />
        <mxCell id="1" parent="0" />
        <mxCell id="3nuBFxr9cyL0pnOWT2aG-1" value="用户进程" style="shape=umlLifeline;perimeter=lifelinePerimeter;container=1;collapsible=0;recursiveResize=0;rounded=0;shadow=0;strokeWidth=1;" parent="1" vertex="1">
          <mxGeometry x="120" y="80" width="100" height="300" as="geometry" />
        </mxCell>
        <mxCell id="3nuBFxr9cyL0pnOWT2aG-2" value="" style="points=[];perimeter=orthogonalPerimeter;rounded=0;shadow=0;strokeWidth=1;" parent="3nuBFxr9cyL0pnOWT2aG-1" vertex="1">
          <mxGeometry x="45" y="60" width="10" height="220" as="geometry" />
        </mxCell>
        <mxCell id="3nuBFxr9cyL0pnOWT2aG-5" value="cpu" style="shape=umlLifeline;perimeter=lifelinePerimeter;container=1;collapsible=0;recursiveResize=0;rounded=0;shadow=0;strokeWidth=1;" parent="1" vertex="1">
          <mxGeometry x="300" y="80" width="100" height="320" as="geometry" />
        </mxCell>
        <mxCell id="3nuBFxr9cyL0pnOWT2aG-6" value="" style="points=[];perimeter=orthogonalPerimeter;rounded=0;shadow=0;strokeWidth=1;" parent="3nuBFxr9cyL0pnOWT2aG-5" vertex="1">
          <mxGeometry x="45" y="70" width="10" height="30" as="geometry" />
        </mxCell>
        <mxCell id="j7_Gn6vmwmsCvOYt-O8m-1" value="磁盘" style="rounded=0;whiteSpace=wrap;html=1;" vertex="1" parent="1">
          <mxGeometry x="480" y="80" width="100" height="40" as="geometry" />
        </mxCell>
        <mxCell id="j7_Gn6vmwmsCvOYt-O8m-5" value="" style="shape=curlyBracket;whiteSpace=wrap;html=1;rounded=1;fillColor=#e51400;strokeColor=#B20000;fontColor=#ffffff;strokeWidth=2;" vertex="1" parent="1">
          <mxGeometry x="140" y="150" width="20" height="190" as="geometry" />
        </mxCell>
        <mxCell id="j7_Gn6vmwmsCvOYt-O8m-8" value="阻塞等待" style="rounded=0;whiteSpace=wrap;html=1;strokeWidth=2;fillColor=#e51400;strokeColor=#B20000;fontColor=#ffffff;" vertex="1" parent="1">
          <mxGeometry x="110" y="210" width="20" height="70" as="geometry" />
        </mxCell>
        <mxCell id="j7_Gn6vmwmsCvOYt-O8m-9" value="&lt;span style=&quot;background-color: rgb(255 , 255 , 153)&quot;&gt;用户态切换为内核态&lt;/span&gt;" style="text;html=1;align=center;verticalAlign=middle;resizable=0;points=[];autosize=1;strokeColor=none;" vertex="1" parent="1">
          <mxGeometry x="200" y="160" width="120" height="20" as="geometry" />
        </mxCell>
        <mxCell id="j7_Gn6vmwmsCvOYt-O8m-12" value="" style="endArrow=classic;html=1;" edge="1" parent="1">
          <mxGeometry width="50" height="50" relative="1" as="geometry">
            <mxPoint x="180" y="160" as="sourcePoint" />
            <mxPoint x="340" y="160" as="targetPoint" />
          </mxGeometry>
        </mxCell>
        <mxCell id="j7_Gn6vmwmsCvOYt-O8m-13" value="read()调用" style="text;html=1;align=center;verticalAlign=middle;resizable=0;points=[];autosize=1;strokeColor=none;" vertex="1" parent="1">
          <mxGeometry x="215" y="140" width="70" height="20" as="geometry" />
        </mxCell>
        <mxCell id="j7_Gn6vmwmsCvOYt-O8m-14" value="" style="points=[];perimeter=orthogonalPerimeter;rounded=0;shadow=0;strokeWidth=1;" vertex="1" parent="1">
          <mxGeometry x="345" y="320" width="10" height="30" as="geometry" />
        </mxCell>
        <mxCell id="j7_Gn6vmwmsCvOYt-O8m-15" value="" style="endArrow=classic;html=1;" edge="1" parent="1">
          <mxGeometry width="50" height="50" relative="1" as="geometry">
            <mxPoint x="345" y="340" as="sourcePoint" />
            <mxPoint x="175" y="340" as="targetPoint" />
          </mxGeometry>
        </mxCell>
        <mxCell id="j7_Gn6vmwmsCvOYt-O8m-16" value="read()调用返回" style="text;html=1;align=center;verticalAlign=middle;resizable=0;points=[];autosize=1;strokeColor=none;" vertex="1" parent="1">
          <mxGeometry x="210" y="320" width="100" height="20" as="geometry" />
        </mxCell>
        <mxCell id="j7_Gn6vmwmsCvOYt-O8m-17" value="&lt;span style=&quot;background-color: rgb(255 , 255 , 153)&quot;&gt;内核态切换为用户态&lt;/span&gt;" style="text;html=1;align=center;verticalAlign=middle;resizable=0;points=[];autosize=1;strokeColor=none;" vertex="1" parent="1">
          <mxGeometry x="200" y="340" width="120" height="20" as="geometry" />
        </mxCell>
        <mxCell id="j7_Gn6vmwmsCvOYt-O8m-18" value="" style="points=[];perimeter=orthogonalPerimeter;rounded=0;shadow=0;strokeWidth=1;" vertex="1" parent="1">
          <mxGeometry x="345" y="210" width="10" height="30" as="geometry" />
        </mxCell>
        <mxCell id="j7_Gn6vmwmsCvOYt-O8m-19" value="" style="points=[];perimeter=orthogonalPerimeter;rounded=0;shadow=0;strokeWidth=1;" vertex="1" parent="1">
          <mxGeometry x="345" y="270" width="10" height="30" as="geometry" />
        </mxCell>
        <mxCell id="j7_Gn6vmwmsCvOYt-O8m-20" value="" style="points=[];perimeter=orthogonalPerimeter;rounded=0;shadow=0;strokeWidth=1;" vertex="1" parent="1">
          <mxGeometry x="525" y="170" width="10" height="50" as="geometry" />
        </mxCell>
        <mxCell id="j7_Gn6vmwmsCvOYt-O8m-21" value="" style="shape=curlyBracket;whiteSpace=wrap;html=1;rounded=1;flipH=1;strokeWidth=2;" vertex="1" parent="1">
          <mxGeometry x="540" y="170" width="20" height="50" as="geometry" />
        </mxCell>
        <mxCell id="j7_Gn6vmwmsCvOYt-O8m-22" value="将数据放入磁盘&lt;br&gt;控制器缓冲区" style="text;html=1;align=center;verticalAlign=middle;resizable=0;points=[];autosize=1;strokeColor=none;" vertex="1" parent="1">
          <mxGeometry x="560" y="180" width="100" height="30" as="geometry" />
        </mxCell>
        <mxCell id="j7_Gn6vmwmsCvOYt-O8m-23" value="" style="endArrow=classic;html=1;" edge="1" parent="1">
          <mxGeometry width="50" height="50" relative="1" as="geometry">
            <mxPoint x="355" y="179" as="sourcePoint" />
            <mxPoint x="520" y="179" as="targetPoint" />
          </mxGeometry>
        </mxCell>
        <mxCell id="j7_Gn6vmwmsCvOYt-O8m-24" value="" style="endArrow=classic;html=1;" edge="1" parent="1">
          <mxGeometry width="50" height="50" relative="1" as="geometry">
            <mxPoint x="520" y="210" as="sourcePoint" />
            <mxPoint x="360" y="210" as="targetPoint" />
          </mxGeometry>
        </mxCell>
        <mxCell id="j7_Gn6vmwmsCvOYt-O8m-25" value="发起io请求" style="text;html=1;align=center;verticalAlign=middle;resizable=0;points=[];autosize=1;strokeColor=none;" vertex="1" parent="1">
          <mxGeometry x="400" y="160" width="70" height="20" as="geometry" />
        </mxCell>
        <mxCell id="j7_Gn6vmwmsCvOYt-O8m-26" value="发起io中断请求" style="text;html=1;align=center;verticalAlign=middle;resizable=0;points=[];autosize=1;strokeColor=none;" vertex="1" parent="1">
          <mxGeometry x="390" y="210" width="100" height="20" as="geometry" />
        </mxCell>
        <mxCell id="j7_Gn6vmwmsCvOYt-O8m-28" value="" style="endArrow=classic;html=1;entryX=1;entryY=0.267;entryDx=0;entryDy=0;entryPerimeter=0;exitX=1.1;exitY=0.767;exitDx=0;exitDy=0;exitPerimeter=0;" edge="1" parent="1" source="j7_Gn6vmwmsCvOYt-O8m-18" target="j7_Gn6vmwmsCvOYt-O8m-19">
          <mxGeometry width="50" height="50" relative="1" as="geometry">
            <mxPoint x="355" y="240" as="sourcePoint" />
            <mxPoint x="405" y="240" as="targetPoint" />
            <Array as="points">
              <mxPoint x="380" y="233" />
              <mxPoint x="380" y="278" />
            </Array>
          </mxGeometry>
        </mxCell>
        <mxCell id="j7_Gn6vmwmsCvOYt-O8m-29" value="将数据从磁盘控制区缓冲区&lt;br&gt;拷贝到PageCache&lt;br&gt;" style="text;html=1;align=center;verticalAlign=middle;resizable=0;points=[];autosize=1;strokeColor=none;" vertex="1" parent="1">
          <mxGeometry x="375" y="240" width="160" height="30" as="geometry" />
        </mxCell>
        <mxCell id="j7_Gn6vmwmsCvOYt-O8m-30" value="" style="endArrow=none;dashed=1;html=1;entryX=0.5;entryY=1;entryDx=0;entryDy=0;exitX=0.4;exitY=0;exitDx=0;exitDy=0;exitPerimeter=0;" edge="1" parent="1" source="j7_Gn6vmwmsCvOYt-O8m-20" target="j7_Gn6vmwmsCvOYt-O8m-1">
          <mxGeometry width="50" height="50" relative="1" as="geometry">
            <mxPoint x="390" y="210" as="sourcePoint" />
            <mxPoint x="440" y="160" as="targetPoint" />
          </mxGeometry>
        </mxCell>
        <mxCell id="j7_Gn6vmwmsCvOYt-O8m-32" value="" style="endArrow=none;dashed=1;html=1;entryX=0.5;entryY=1.02;entryDx=0;entryDy=0;entryPerimeter=0;" edge="1" parent="1" target="j7_Gn6vmwmsCvOYt-O8m-20">
          <mxGeometry width="50" height="50" relative="1" as="geometry">
            <mxPoint x="530" y="400" as="sourcePoint" />
            <mxPoint x="440" y="160" as="targetPoint" />
          </mxGeometry>
        </mxCell>
        <mxCell id="j7_Gn6vmwmsCvOYt-O8m-35" value="" style="endArrow=classic;html=1;entryX=1;entryY=0.267;entryDx=0;entryDy=0;entryPerimeter=0;exitX=1.1;exitY=0.767;exitDx=0;exitDy=0;exitPerimeter=0;" edge="1" parent="1">
          <mxGeometry width="50" height="50" relative="1" as="geometry">
            <mxPoint x="356" y="290.01" as="sourcePoint" />
            <mxPoint x="355" y="335.01" as="targetPoint" />
            <Array as="points">
              <mxPoint x="380" y="290" />
              <mxPoint x="380" y="335" />
              <mxPoint x="370" y="335.01" />
            </Array>
          </mxGeometry>
        </mxCell>
        <mxCell id="j7_Gn6vmwmsCvOYt-O8m-36" value="将数据从pageCache&lt;br&gt;拷贝到用户缓冲区" style="text;html=1;align=center;verticalAlign=middle;resizable=0;points=[];autosize=1;strokeColor=none;" vertex="1" parent="1">
          <mxGeometry x="380" y="300" width="120" height="30" as="geometry" />
        </mxCell>
      </root>
    </mxGraphModel>
  </diagram>
</mxfile>
